<svg xmlns="http://www.w3.org/2000/svg" width="236" height="36" fill="none"><g clip-path="url(#a)"><circle cx="16.462" cy="17.294" r="16.462" fill="#FC3F1D"/><path fill="#fff" d="M18.782 27.187h3.439V7.433h-5.003c-5.03 0-7.674 2.586-7.674 6.395 0 3.041 1.45 4.832 4.036 6.68l-4.49 6.679h3.723l5.002-7.475-1.734-1.166c-2.103-1.42-3.126-2.53-3.126-4.917 0-2.103 1.478-3.524 4.292-3.524h1.535v17.082Z"/></g><rect width="32.923" height="32.923" x="35.118" y=".832" fill="#fff" rx="12.346"/><path fill="#1E1E1E" d="m52.198 16.107 9.142-6.4.707 1.01-9.237 6.467 10.226 4.769-.523 1.118-10.315-4.81v11.378h-1.234v-5.293l-.92 5.213-1.216-.213 1.305-7.409-3.153 6.764-1.118-.523 4.046-8.676-7.389 6.2-.793-.945 7.955-6.678-10.346.905-.108-1.23 10.815-.947-8.317-6.976.794-.946 8.445 7.085V4.864h1.234v11.242Z"/><path fill="#000" d="M52.198 16.107h-.143v.275l.225-.158-.082-.117Zm9.142-6.4.117-.082-.082-.117-.118.082.083.117Zm.707 1.01.083.118.117-.082-.082-.118-.117.082Zm-9.237 6.467-.082-.117-.203.142.225.105.06-.13Zm10.226 4.769.13.06.06-.13-.13-.06-.06.13Zm-.523 1.118-.06.13.13.06.06-.13-.13-.06Zm-10.315-4.81.06-.13-.203-.095v.224h.143Zm0 11.378v.143h.143v-.143h-.143Zm-1.234 0h-.144v.143h.144v-.143Zm0-5.293h.143l-.284-.024.14.024Zm-.92 5.213-.024.141.14.025.026-.14-.141-.026Zm-1.216-.213-.141-.025-.025.14.141.025.025-.14Zm1.305-7.409.141.025-.27-.085.13.06Zm-3.153 6.764-.06.13.13.06.06-.13-.13-.06Zm-1.118-.523-.13-.06-.06.13.13.06.06-.13Zm4.046-8.676.13.06-.222-.17.092.11Zm-7.389 6.2-.11.093.093.11.11-.093-.093-.11Zm-.793-.945-.092-.11-.11.092.093.11.11-.092Zm7.955-6.678.092.11.348-.292-.452.04.012.142Zm-10.346.905-.143.013.013.142.142-.012-.012-.143Zm-.108-1.23-.012-.142-.143.013.013.142.142-.012Zm10.815-.947.012.143.344-.03-.264-.222-.092.11Zm-8.317-6.976-.11-.092-.091.11.11.091.091-.11Zm.794-.946.092-.11-.11-.092-.091.11.11.092Zm8.445 7.085-.093.11.236.196v-.306h-.143Zm0-11.105v-.143h-.144v.143h.144Zm1.234 0h.143v-.143h-.143v.143Zm0 11.242.082.117 9.142-6.4-.082-.117-.083-.117-9.141 6.4.082.117Zm9.142-6.4-.118.082.708 1.01.117-.082.118-.082-.708-1.01-.117.082Zm.707 1.01-.082-.117-9.237 6.467.082.117.082.117 9.237-6.466-.081-.118Zm-9.237 6.467-.06.13 10.225 4.768.06-.13.061-.129-10.225-4.768-.06.13Zm10.226 4.769-.13-.06-.522 1.117.13.061.129.06.522-1.118-.13-.06Zm-.523 1.118.06-.13-10.315-4.81-.06.13-.06.13 10.315 4.81.06-.13Zm-10.315-4.81h-.143v11.378h.286V18.261h-.143Zm0 11.378v-.143h-1.234v.286h1.234v-.143Zm-1.234 0h.143v-5.293h-.287v5.293h.144Zm0-5.293-.141-.024-.92 5.213.142.024.14.025.92-5.213-.141-.025Zm-.92 5.213.025-.14-1.217-.214-.024.14-.025.141 1.217.214.025-.14Zm-1.216-.213.14.024 1.306-7.408-.14-.025-.142-.025-1.305 7.409.14.024Zm1.305-7.409-.13-.06-3.153 6.764.13.06.13.06 3.153-6.763-.13-.06Zm-3.153 6.764.06-.13-1.117-.522-.061.13-.06.13 1.117.521.061-.13Zm-1.118-.523.13.06 4.046-8.676-.13-.06-.13-.06-4.046 8.676.13.06Zm4.046-8.676-.092-.11-7.389 6.201.092.11.092.11L50 19.61l-.092-.11Zm-7.389 6.2.11-.091-.793-.946-.11.092-.11.091.794.947.11-.092Zm-.793-.945.092.11 7.955-6.679-.092-.11-.092-.109-7.955 6.678.092.11Zm7.955-6.678-.012-.143-10.347.906.013.142.012.143 10.347-.906-.013-.142Zm-10.346.905.142-.012-.107-1.23-.143.013-.142.012.107 1.23.143-.013Zm-.108-1.23.013.143 10.814-.947-.012-.143-.013-.142-10.814.947.012.143Zm10.815-.947.092-.11-8.317-6.976-.092.11-.092.11 8.317 6.976.092-.11Zm-8.317-6.976.11.092.794-.947-.11-.091-.11-.092-.793.946.11.092Zm.794-.946-.092.11 8.444 7.084.093-.11.092-.11-8.445-7.084-.092.11Zm8.445 7.085h.143V4.864h-.287v11.104h.144Zm0-11.105v.143h1.234v-.286h-1.234v.143Zm1.234 0h-.143v11.242h.286V4.865h-.143Z"/><path fill="#fff" d="M236 29.64h-4.137V16.23l-4.352 13.41h-3.46l-3.887-13.375V29.64h-3.603V11.7h6.171l3.495 11.948 3.888-11.948h5.814L236 29.64ZM202.718 35.168c-.428 0-.785-.035-1.07-.107a3.872 3.872 0 0 1-.714-.178 2.282 2.282 0 0 1-.535-.321v-3.46c.476.476 1.118.714 1.926.714.595 0 1.07-.131 1.427-.393a2.81 2.81 0 0 0 .892-.998l-6.171-18.726h4.459l3.959 13.518L210.85 11.7h4.101l-5.599 16.977c-.31.927-.642 1.783-.999 2.568a8.26 8.26 0 0 1-1.284 2.033 5.238 5.238 0 0 1-1.819 1.391c-.69.333-1.534.5-2.532.5ZM187.368 20.973v8.667h-4.244V11.7h4.244v8.417l5.992-8.418h4.281l-5.993 8.418 6.813 9.523h-4.815l-6.278-8.667ZM169.287 11.7v11.128l6.491-11.128h3.781v17.94h-4.102V18.547l-6.491 11.093h-3.781V11.7h4.102ZM157.679 15.052V29.64h-4.244V15.052h-4.994V11.7h14.232v3.352h-4.994ZM136.445 20.973v8.667H132.2V11.7h4.245v8.417l5.992-8.418h4.28l-5.992 8.418 6.812 9.523h-4.815l-6.277-8.667ZM124.543 21.472h-.606c-1.831 0-3.139.214-3.923.642-.785.404-1.177 1.118-1.177 2.14 0 .761.214 1.38.642 1.855.451.452 1.129.677 2.033.677.761 0 1.391-.13 1.89-.392.499-.285.88-.63 1.141-1.034v-3.888Zm4.245 3.78c0 1.475.071 2.938.214 4.388h-4.138a8.155 8.155 0 0 1-.214-.678 9.824 9.824 0 0 1-.107-.749h-.178c-.404.428-.927.82-1.569 1.177-.642.333-1.582.5-2.818.5-1.641 0-2.972-.488-3.995-1.463-.998-.975-1.498-2.378-1.498-4.209 0-1.83.749-3.245 2.247-4.244 1.498-1.022 3.876-1.534 7.134-1.534h.677v-.998c0-.975-.237-1.653-.713-2.033-.476-.405-1.225-.607-2.247-.607-.547 0-1.106.06-1.676.179a11.8 11.8 0 0 0-1.641.392 12.78 12.78 0 0 0-1.427.57 7.08 7.08 0 0 0-1.07.643v-3.531c.642-.38 1.498-.75 2.568-1.106 1.07-.357 2.319-.535 3.745-.535 2.259 0 3.936.452 5.029 1.355 1.118.904 1.677 2.45 1.677 4.637v7.847ZM100.984 14.018c.547-.88 1.225-1.546 2.033-1.998a5.667 5.667 0 0 1 2.747-.677c.998 0 1.914.202 2.746.606.832.404 1.546 1.01 2.14 1.82.595.784 1.058 1.759 1.391 2.924.333 1.141.499 2.46.499 3.959 0 1.498-.178 2.83-.535 3.995-.332 1.165-.808 2.152-1.426 2.96a5.753 5.753 0 0 1-2.212 1.783c-.856.404-1.795.607-2.817.607-1.879 0-3.365-.82-4.459-2.461v7.276h-4.244V11.699h3.923l.214 2.319Zm3.496 12.626c1.236 0 2.152-.476 2.746-1.427.618-.95.927-2.473.927-4.565 0-2.093-.285-3.603-.856-4.53-.57-.951-1.438-1.427-2.603-1.427-1.189 0-2.081.452-2.675 1.356-.595.903-.904 2.354-.928 4.351v.285c0 2.093.274 3.615.821 4.566.57.927 1.426 1.39 2.568 1.39ZM93.294 4.851V29.64h-4.316V8.204h-7.704V29.64H76.96V4.85h16.335Z"/><defs><clipPath id="a"><path fill="#fff" d="M0 .832h32.923v32.923H0z"/></clipPath></defs></svg>