<svg width="40" height="65" viewBox="0 0 40 65" fill="none" xmlns="http://www.w3.org/2000/svg">
<g clip-path="url(#clip0_24065_48)">
<path d="M16.8859 -2.63396L16.8859 -86.5699C16.8859 -94.8156 23.5703 -101.5 31.816 -101.5C40.0617 -101.5 46.7461 -94.8156 46.7461 -86.5699L46.7461 144.07C46.7461 152.316 40.0617 159 31.816 159C23.5703 159 16.8859 152.316 16.8859 144.07L16.8859 68.6596C16.8859 61.8505 14.1036 55.3371 9.18396 50.6294L7.49174 49.0101C-2.36635 39.5768 -1.82056 23.6645 8.66072 14.9288C13.8726 10.585 16.8859 4.15074 16.8859 -2.63396Z" fill="#F1F1F1" stroke="#1E1E1E"/>
<path d="M33.4999 31.9995C33.4999 24.5437 27.4558 18.4995 19.9999 18.4995C12.5441 18.4995 6.49994 24.5437 6.49994 31.9995C6.49994 39.4554 12.5441 45.4995 19.9999 45.4995C27.4558 45.4995 33.4999 39.4554 33.4999 31.9995Z" stroke="#1E1E1E"/>
<path d="M24.8304 34.9686L20.2614 39.5376L15.6924 34.9686" stroke="#1E1E1E"/>
<path d="M24.8303 29.1137L20.2614 24.5447L15.6924 29.1137" stroke="#1E1E1E"/>
</g>
<defs>
<clipPath id="clip0_24065_48">
<rect width="40" height="65" fill="white"/>
</clipPath>
</defs>
</svg>
